<svg width="24" height="24" viewBox="0 0 24 24" fill="none" xmlns="http://www.w3.org/2000/svg">
<path d="M12 24C18.6274 24 24 18.6274 24 12C24 5.37258 18.6274 0 12 0C5.37258 0 0 5.37258 0 12C0 18.6274 5.37258 24 12 24Z" fill="#8247E5"/>
<path d="M15.9717 9.43246C15.6839 9.26503 15.3097 9.26503 14.9931 9.43246L12.7481 10.7162L11.2227 11.5534L8.97764 12.8371C8.68981 13.0045 8.31565 13.0045 7.99903 12.8371L6.21453 11.8325C5.92671 11.665 5.72524 11.358 5.72524 11.0231V9.04176C5.72524 8.70689 5.89793 8.3999 6.21453 8.23246L7.97025 7.25571C8.25806 7.08827 8.63224 7.08827 8.94886 7.25571L10.7046 8.23246C10.9924 8.3999 11.1939 8.70689 11.1939 9.04176V10.3255L12.7193 9.46035V8.17664C12.7193 7.84176 12.5466 7.53478 12.23 7.36734L8.97764 5.52548C8.68981 5.35804 8.31565 5.35804 7.99903 5.52548L4.68907 7.36734C4.37246 7.53478 4.19977 7.84176 4.19977 8.17664V11.8883C4.19977 12.2231 4.37246 12.5301 4.68907 12.6976L7.99903 14.5394C8.28687 14.7069 8.66103 14.7069 8.97764 14.5394L11.2227 13.2836L12.7481 12.4185L14.9931 11.1627C15.2809 10.9953 15.6551 10.9953 15.9717 11.1627L17.7274 12.1394C18.0153 12.3069 18.2168 12.6138 18.2168 12.9487V14.9301C18.2168 15.265 18.044 15.572 17.7274 15.7394L15.9717 16.7441C15.6839 16.9115 15.3097 16.9115 14.9931 16.7441L13.2374 15.7673C12.9496 15.5999 12.7481 15.2929 12.7481 14.958V13.6743L11.2227 14.5394V15.8231C11.2227 16.158 11.3953 16.465 11.712 16.6325L15.0219 18.4743C15.3097 18.6418 15.6839 18.6418 16.0005 18.4743L19.3105 16.6325C19.5983 16.465 19.7998 16.158 19.7998 15.8231V12.1115C19.7998 11.7766 19.6271 11.4697 19.3105 11.3022L15.9717 9.43246Z" fill="white"/>
</svg>
