<svg width="18" height="20" viewBox="0 0 18 20" fill="none" xmlns="http://www.w3.org/2000/svg">
<path d="M4.00002 5.00019H14V6.79018C14 7.24018 14.54 7.46019 14.85 7.14019L17.64 4.35018C17.84 4.15018 17.84 3.84018 17.64 3.64018L14.85 0.850185C14.54 0.540185 14 0.760185 14 1.21018V3.00018H3.00002C2.45002 3.00018 2.00002 3.45018 2.00002 4.00018V8.00019C2.00002 8.55019 2.45002 9.00019 3.00002 9.00019C3.55002 9.00019 4.00002 8.55019 4.00002 8.00019V5.00019ZM14 15.0002H4.00002V13.2102C4.00002 12.7602 3.46002 12.5402 3.15002 12.8602L0.360022 15.6502C0.160022 15.8502 0.160022 16.1602 0.360022 16.3602L3.15002 19.1502C3.46002 19.4602 4.00002 19.2402 4.00002 18.7902V17.0002H15C15.55 17.0002 16 16.5502 16 16.0002V12.0002C16 11.4502 15.55 11.0002 15 11.0002C14.45 11.0002 14 11.4502 14 12.0002V15.0002Z" fill="#525F7B"/>
</svg>
