<svg width="16" height="20" viewBox="0 0 16 20" fill="none" xmlns="http://www.w3.org/2000/svg">
<path d="M3.65003 0.350039L0.860031 3.14004C0.540031 3.46004 0.76003 4.00004 1.21003 4.00004H3.00003L3.00003 18C3.00003 18.55 3.45003 19 4.00003 19C4.55003 19 5.00003 18.55 5.00003 18L5.00003 4.00004H6.79003C7.24003 4.00004 7.46003 3.46004 7.14003 3.15004L4.35003 0.360039C4.16003 0.160038 3.84003 0.160038 3.65003 0.350039Z" fill="#1F6DC9"/>
<path d="M12.35 19.65L15.14 16.86C15.46 16.54 15.24 16 14.79 16H13L13 2.00002C13 1.45002 12.55 1.00002 12 1.00002C11.45 1.00002 11 1.45002 11 2.00002L11 16H9.21003C8.76003 16 8.54003 16.54 8.86003 16.85L11.65 19.64C11.84 19.84 12.16 19.84 12.35 19.65Z" fill="#1F6DC9"/>
</svg>
