<svg width="19" height="18" viewBox="0 0 19 18" fill="none" xmlns="http://www.w3.org/2000/svg">
<path d="M9.99999 0C9.44999 0 8.99999 0.45 8.99999 1V9C8.99999 9.55 9.44999 10 9.99999 10C10.55 10 11 9.55 11 9V1C11 0.45 10.55 0 9.99999 0ZM15.14 2.86C14.75 3.25 14.76 3.86 15.13 4.25C16.26 5.45 16.96 7.05 17 8.82C17.09 12.65 13.92 15.95 10.09 15.99C6.17999 16.05 2.99999 12.9 2.99999 9C2.99999 7.16 3.70999 5.49 4.86999 4.24C5.23999 3.85 5.23999 3.24 4.85999 2.86C4.45999 2.46 3.80999 2.47 3.42999 2.88C1.97999 4.42 1.06999 6.47 0.999992 8.74C0.859992 13.62 4.82999 17.84 9.70999 17.99C14.81 18.15 19 14.06 19 8.99C19 6.62 18.08 4.48 16.58 2.88C16.2 2.47 15.54 2.46 15.14 2.86Z" fill="#1F6DC9"/>
</svg>
